<?xml version="1.0" standalone="no"?>
<!DOCTYPE svg PUBLIC "-//W3C//DTD SVG 20010904//EN"
 "http://www.w3.org/TR/2001/REC-SVG-20010904/DTD/svg10.dtd">
<svg version="1.0" xmlns="http://www.w3.org/2000/svg"
 width="500.000000pt" height="500.000000pt" viewBox="0 0 500.000000 500.000000"
 preserveAspectRatio="xMidYMid meet">
<metadata>
Created by potrace 1.11, written by Peter Selinger 2001-2013
</metadata>
<g transform="translate(0.000000,500.000000) scale(0.100000,-0.100000)"
fill="#000000" stroke="none">
<path d="M2319 4855 c-2 -1 -35 -6 -74 -9 -38 -3 -79 -8 -90 -10 -11 -2 -40
-7 -65 -11 -106 -17 -299 -67 -365 -94 -11 -5 -47 -19 -80 -31 -87 -33 -239
-103 -243 -112 -2 -5 -8 -8 -14 -8 -13 0 -152 -81 -156 -92 -2 -4 -8 -8 -14
-8 -8 0 -134 -85 -148 -100 -3 -3 -36 -30 -75 -61 -85 -68 -222 -202 -290
-284 -27 -33 -53 -61 -57 -63 -5 -2 -8 -10 -8 -18 0 -8 -4 -14 -9 -14 -9 0
-81 -102 -93 -132 -4 -10 -12 -18 -18 -18 -5 0 -10 -5 -10 -11 0 -6 -13 -30
-28 -53 -62 -92 -235 -466 -216 -466 2 0 -2 -13 -11 -30 -8 -16 -15 -31 -14
-32 1 -2 -5 -23 -12 -48 -7 -25 -13 -47 -14 -50 -5 -21 -16 -69 -19 -85 -3
-11 -9 -40 -14 -65 -6 -25 -13 -70 -17 -100 -3 -30 -10 -84 -14 -120 -9 -69
-7 -458 3 -500 3 -13 8 -42 11 -65 10 -66 15 -99 20 -115 2 -8 7 -28 10 -45 9
-54 14 -75 24 -108 6 -18 20 -63 32 -102 11 -38 27 -83 34 -100 7 -16 16 -41
20 -55 4 -14 18 -46 31 -72 14 -27 22 -48 20 -48 -2 0 6 -19 19 -42 14 -24 31
-57 38 -73 8 -17 33 -61 56 -99 22 -37 41 -72 41 -76 0 -5 3 -10 8 -12 4 -1
24 -28 44 -58 21 -30 48 -67 60 -82 13 -14 32 -39 43 -54 83 -114 283 -305
435 -415 119 -86 139 -99 150 -99 5 0 10 -4 10 -9 0 -5 15 -14 33 -22 17 -7
34 -16 37 -19 6 -8 209 -109 265 -132 58 -23 157 -59 175 -63 8 -2 28 -8 44
-14 16 -6 49 -16 75 -22 25 -6 53 -12 61 -14 51 -13 161 -35 195 -39 22 -3 67
-9 100 -13 74 -10 418 -10 500 0 75 8 123 15 155 22 148 29 181 37 210 48 8 3
38 11 65 18 28 6 56 17 64 23 8 6 16 9 18 7 13 -11 339 136 451 204 75 45 242
165 277 198 11 10 32 26 48 35 15 9 27 22 27 29 0 7 4 13 9 13 10 0 191 177
191 186 0 4 8 14 18 23 30 27 133 161 125 161 -4 0 0 5 10 11 9 5 17 16 17 24
0 7 4 15 9 17 16 6 112 169 177 303 86 176 179 465 199 615 5 39 17 117 22
140 2 14 6 111 8 215 4 196 -4 307 -31 455 -9 47 -17 92 -18 100 -6 30 -18 76
-44 160 -14 47 -26 90 -28 95 -16 72 -140 338 -199 431 -19 30 -35 57 -35 59
0 6 -83 127 -124 180 -69 89 -134 163 -217 245 -136 136 -268 237 -464 357
-47 29 -236 122 -300 147 -38 16 -79 32 -90 37 -34 14 -189 61 -211 63 -11 2
-25 5 -30 9 -5 3 -29 8 -54 12 -25 4 -47 8 -51 11 -3 2 -21 6 -40 8 -103 15
-126 18 -149 23 -28 5 -436 14 -441 8z"/>
</g>
</svg>
